<svg width="600" height="600" viewBox="0 0 158.75 158.75" xmlns="http://www.w3.org/2000/svg"><defs><clipPath clipPathUnits="userSpaceOnUse" id="c"><path style="fill:#4d4d4d;fill-opacity:1;stroke:none;stroke-width:.432062;stroke-miterlimit:4;stroke-dasharray:none;stroke-opacity:1" d="M0 0h158.75v158.75H0z"/></clipPath><clipPath clipPathUnits="userSpaceOnUse" id="b"><path style="fill:#4d4d4d;fill-opacity:1;stroke:none;stroke-width:.432062;stroke-miterlimit:4;stroke-dasharray:none;stroke-opacity:1" d="M0 0h158.75v158.75H0z"/></clipPath><clipPath clipPathUnits="userSpaceOnUse" id="a"><path style="fill:#4d4d4d;fill-opacity:1;stroke:none;stroke-width:.432062;stroke-miterlimit:4;stroke-dasharray:none;stroke-opacity:1" d="M0 0h158.75v158.75H0z"/></clipPath></defs><g style="opacity:.5;fill:#1a1a1a"><path style="fill:#1a1a1a;stroke:none;stroke-width:.264583px;stroke-linecap:butt;stroke-linejoin:miter;stroke-opacity:1" d="M0 68.792 68.792 0H0zm158.75 0L89.958 0h68.792z"/></g><path style="fill:#16130e;fill-opacity:1;stroke:none;stroke-width:.264583px;stroke-linecap:butt;stroke-linejoin:miter;stroke-opacity:1" d="m158.75 68.792-5.292-5.292V26.458h-5.291v-5.291h5.291V5.292h-15.875v5.291h-5.291V5.292H95.25L89.958 0h68.792z"/><path style="fill:#c9a66d;fill-opacity:1;stroke:none;stroke-width:.264583;stroke-miterlimit:4;stroke-dasharray:none;stroke-opacity:1" d="M149.754 6.879h2.117v2.117h-2.117zm-10.583 10.584h2.117v2.117h-2.117z"/><path style="opacity:.5;fill:none;stroke:#bd924a;stroke-width:.529167;stroke-linecap:butt;stroke-linejoin:miter;stroke-miterlimit:4;stroke-dasharray:none;stroke-opacity:1" d="M147.638 26.723h-9.79V16.14h4.762v4.762h-10.583v-9.79"/><path style="opacity:.5;fill:none;stroke:#bd924a;stroke-width:.529167;stroke-linecap:butt;stroke-linejoin:miter;stroke-miterlimit:4;stroke-dasharray:none;stroke-opacity:1" d="M95.515 5.556h36.512v5.292h5.82V5.556h15.347v15.346h-5.292v5.82h5.292v36.513"/><path style="opacity:.5;fill:none;stroke:#bd924a;stroke-width:.529167;stroke-linecap:butt;stroke-linejoin:miter;stroke-miterlimit:4;stroke-dasharray:none;stroke-opacity:1" d="M148.431 5.82v4.499h4.498"/><path style="opacity:.5;fill:none;stroke:#bd924a;stroke-width:.264583px;stroke-linecap:butt;stroke-linejoin:miter;stroke-opacity:1" d="M148.167 7.805h-10.054m-6.35 0H97.896"/><path style="opacity:.5;fill:none;stroke:#bd924a;stroke-width:.529167;stroke-linecap:butt;stroke-linejoin:miter;stroke-miterlimit:4;stroke-dasharray:none;stroke-opacity:1" d="M131.763 10.848h-30.957"/><path style="opacity:.5;fill:none;stroke:#bd924a;stroke-width:.264583px;stroke-linecap:butt;stroke-linejoin:miter;stroke-opacity:1" d="M150.945 10.583v10.055m0 6.35v33.866"/><path style="opacity:.5;fill:none;stroke:#bd924a;stroke-width:.529167;stroke-linecap:butt;stroke-linejoin:miter;stroke-miterlimit:4;stroke-dasharray:none;stroke-opacity:1" d="M147.902 26.988v30.956"/><path style="fill:#16130e;fill-opacity:1;stroke:none;stroke-width:.264583px;stroke-linecap:butt;stroke-linejoin:miter;stroke-opacity:1" d="m158.75 68.792-5.292-5.292V26.458h-5.291v-5.291h5.291V5.292h-15.875v5.291h-5.291V5.292H95.25L89.958 0h68.792z" transform="matrix(-1 0 0 1 158.75 0)"/><path style="fill:#c9a66d;fill-opacity:1;stroke:none;stroke-width:.264583;stroke-miterlimit:4;stroke-dasharray:none;stroke-opacity:1" d="M149.754 6.879h2.117v2.117h-2.117zm-10.583 10.584h2.117v2.117h-2.117z" transform="matrix(-1 0 0 1 158.75 0)"/><path style="opacity:.5;fill:none;stroke:#bd924a;stroke-width:.529167;stroke-linecap:butt;stroke-linejoin:miter;stroke-miterlimit:4;stroke-dasharray:none;stroke-opacity:1" d="M147.638 26.723h-9.79V16.14h4.762v4.762h-10.583v-9.79" transform="matrix(-1 0 0 1 158.75 0)"/><path style="opacity:.5;fill:none;stroke:#bd924a;stroke-width:.529167;stroke-linecap:butt;stroke-linejoin:miter;stroke-miterlimit:4;stroke-dasharray:none;stroke-opacity:1" d="M95.515 5.556h36.512v5.292h5.82V5.556h15.347v15.346h-5.292v5.82h5.292v36.513" transform="matrix(-1 0 0 1 158.75 0)"/><path style="opacity:.5;fill:none;stroke:#bd924a;stroke-width:.529167;stroke-linecap:butt;stroke-linejoin:miter;stroke-miterlimit:4;stroke-dasharray:none;stroke-opacity:1" d="M148.431 5.82v4.499h4.498" transform="matrix(-1 0 0 1 158.75 0)"/><path style="opacity:.5;fill:none;stroke:#bd924a;stroke-width:.264583px;stroke-linecap:butt;stroke-linejoin:miter;stroke-opacity:1" d="M148.167 7.805h-10.054m-6.35 0H97.896" transform="matrix(-1 0 0 1 158.75 0)"/><path style="opacity:.5;fill:none;stroke:#bd924a;stroke-width:.529167;stroke-linecap:butt;stroke-linejoin:miter;stroke-miterlimit:4;stroke-dasharray:none;stroke-opacity:1" d="M131.763 10.848h-30.957" transform="matrix(-1 0 0 1 158.75 0)"/><path style="opacity:.5;fill:none;stroke:#bd924a;stroke-width:.264583px;stroke-linecap:butt;stroke-linejoin:miter;stroke-opacity:1" d="M150.945 10.583v10.055m0 6.35v33.866" transform="matrix(-1 0 0 1 158.75 0)"/><path style="opacity:.5;fill:none;stroke:#bd924a;stroke-width:.529167;stroke-linecap:butt;stroke-linejoin:miter;stroke-miterlimit:4;stroke-dasharray:none;stroke-opacity:1" d="M147.902 26.988v30.956" transform="matrix(-1 0 0 1 158.75 0)"/><path style="fill:none;stroke:#bd924a;stroke-width:.264583;stroke-miterlimit:4;stroke-dasharray:none;stroke-opacity:1" d="M147.902 57.944v7.408l53.71 53.71" clip-path="url(#a)"/><path style="fill:none;stroke:#bd924a;stroke-width:.264583;stroke-miterlimit:4;stroke-dasharray:none;stroke-opacity:1" d="M-50.27 119.063 79.374-10.583 209.02 119.062" clip-path="url(#b)"/><path style="fill:none;stroke:#bd924a;stroke-width:.264583;stroke-miterlimit:4;stroke-dasharray:none;stroke-opacity:1" d="M10.848 57.944v7.408l-53.71 53.71" clip-path="url(#c)"/></svg>